<svg xmlns="http://www.w3.org/2000/svg" width="1024" height="528"><path fill="#534031" d="M0 0h1024v528H0z"/><g fill-opacity=".502"><path fill="#ffdab2" d="M258 494L546 50l352 380z"/><path d="M546-62L-62 10l88 580zM610 558l420 4V314z"/><path fill="#000006" d="M1086 6L590-26l488 332z"/><path d="M486 550l-524 24 16-296z"/><path fill="#9fbd98" d="M926 378L814 134 522 518z"/><path fill="#f49a70" d="M710 486l-504-60 292-320z"/><path fill="#934c00" d="M354 510L94 358l264-232z"/><path fill="#47425f" d="M618 254l468 8L442-62z"/><path d="M442-38L-62 410V-26zM1030 590l20-320-324 268z"/><path fill="#d8b785" d="M466 230l-56 272 376-44z"/><path d="M522 386l4 204h-64z"/><path fill="#00040b" d="M1034 334L734-62h340z"/><path d="M1086 362L358 590l712-4z"/><path d="M-2 546l436 40-496-376z"/><path fill="#266060" d="M934 394l64-208L734 54z"/><path fill="#965266" d="M310 270l472-16L582 22z"/><path fill="#ffb08e" d="M518 130l-16 384-148-96z"/><path fill="#401605" d="M102 166L662-62 66 402z"/><path fill="#cd8100" d="M518 498L230 354l132 140z"/><path fill="#6f8b7b" d="M830 450l128-176-300-100z"/><path fill="#603a00" d="M306 494L194 210l-88 180z"/><path d="M386-62L-62 326l12-344zM430 526l460 64-152-104z"/><path fill="#000001" d="M1086 194L578-62h484z"/><path fill="#652834" d="M698-62L294 170l56 116z"/><path fill="#778e59" d="M714 490l204-104-56-56z"/><path fill="#f4a04f" d="M454 478l-132-44 24-120z"/><path fill="#241d2d" d="M826 166l68-100L458-62z"/><path d="M514 518l-12-104 28 8zM18 398l612 192-692-8z"/><path fill="#df89be" d="M486 166l-20 156 92-208z"/><path fill="#c9a348" d="M694 466l-164 40-4-80z"/><path fill="#ffd8b5" d="M474 322l32 96-104 40z"/><path d="M1086 198L814 534l220 56z"/><path fill="#be918c" d="M642 298L494 422l88-260z"/><path fill="#5d3e00" d="M506 502l-244-48 212 112z"/><path fill="#b3ae84" d="M862 334l-316-20 152 176z"/><path fill="#012227" d="M738 10l252 124 96 184z"/><path fill="#210409" d="M466 78L134 90 614-62z"/><path fill="#5a5350" d="M670 226l168-52-256-76z"/><path d="M1038 342L738 482l276 108z"/><path fill="#8c8e83" d="M870 386l-60-144-256 8z"/><path fill="#a4603a" d="M306 274l-16 164 184-260z"/><path fill="#ca7575" d="M374 294l84-52 28 100z"/><path fill="#9b6100" d="M218 318l156 168-116-44z"/><path fill="#e6a9a1" d="M538 430l-68-156 92 8z"/><path fill="#562a32" d="M730 122L594-14l8 132z"/><path fill="#224744" d="M954 358l-72-240 140 148z"/></g></svg>